<svg xmlns="http://www.w3.org/2000/svg" id="car" viewBox="0 0 32 32" width="20" height="20" style="fill: rgb(255, 255, 255);"><path d="M28.59 10.78h-2.242c-.13 0-.244.054-.333.134-.716-1.143-1.457-2.058-2.032-2.633-2-2-14-2-16 0-.573.574-1.31 1.483-2.022 2.618-.085-.07-.19-.117-.308-.117H3.41c-.275 0-.5.226-.5.5v1.01c0 .274.22.54.49.593l1.36.26c-1.174 2.618-1.866 5.876-.778 9.14v1.937c0 .553.14 1 .313 1h2.562c.173 0 .313-.447.313-1v-1.584c2.298.22 5.55.46 8.812.46 3.232 0 6.52-.236 8.814-.454v1.578c0 .553.14 1 .312 1h2.562c.172 0 .312-.447.312-1l-.002-1.938c1.087-3.26.397-6.516-.775-9.134l1.392-.265c.27-.052.49-.318.49-.594v-1.01c.003-.274-.222-.5-.497-.5zM7.107 18.907c-1 0-1.812-.812-1.812-1.812s.812-1.812 1.812-1.812 1.812.812 1.812 1.812-.812 1.812-1.813 1.812zm-1.524-5.19C6.543 11.52 7.88 9.8 8.69 8.988c.584-.585 3.34-1.207 7.292-1.207 3.953 0 6.708.623 7.293 1.208.81.81 2.146 2.53 3.106 4.728-2.132.236-6.285-.31-10.398-.31s-8.266.546-10.4.31zm19.274 5.19c-1 0-1.812-.812-1.812-1.812s.812-1.812 1.812-1.812 1.812.812 1.812 1.812-.812 1.812-1.813 1.812z"/></svg>